<svg width="111" height="19" viewBox="0 0 111 19" fill="none" xmlns="http://www.w3.org/2000/svg">
<path d="M65.5749 0.325226H69.5372L62.6368 12.2339V18.6761H59.1249V12.2339L52.213 0.325226H56.2632L60.9127 8.5204L65.5749 0.325226Z" fill="#3B6AC8"/>
<path d="M81.5758 8.35117H87.3005V9.63749C87.2636 12.3 86.3755 14.521 84.6386 16.3123C82.9004 18.105 80.7386 19 78.1631 19C75.5012 19 73.2884 18.0905 71.5134 16.2727C69.7383 14.4549 68.8514 12.1943 68.8514 9.49339C68.8514 6.80573 69.7383 4.54509 71.5134 2.72732C73.2884 0.909546 75.5012 0 78.1631 0C80.3008 0 82.1751 0.597551 83.7886 1.77943C85.4008 2.97453 86.4391 4.50675 86.901 6.3893H82.9513C82.5136 5.51941 81.8634 4.83064 81.0261 4.31109C80.1761 3.80476 79.2256 3.54432 78.1631 3.54432C76.5382 3.54432 75.1755 4.11543 74.0888 5.24576C73.0009 6.37608 72.4512 7.79064 72.4512 9.49207C72.4512 11.1935 73.0009 12.6226 74.1015 13.7516C75.1895 14.8819 76.551 15.453 78.1644 15.453C79.4267 15.453 80.5515 15.1027 81.5147 14.4139C82.4767 13.7252 83.1269 12.8037 83.4654 11.6734H78.3782C78.3756 9.83976 79.8084 8.35117 81.5758 8.35117Z" fill="#3B6AC8"/>
<path d="M89.8772 18.6748V0.325226C91.8304 0.325226 93.4146 1.97113 93.4146 4.00043V18.6761H89.8772V18.6748Z" fill="#3B6AC8"/>
<path d="M108.515 0.325226V3.77965H103.952V18.6761H100.427V3.77965H95.8654V0.325226H108.515Z" fill="#3B6AC8"/>
<path d="M110.133 0.313416V0.405957H109.927V1.06036H109.832V0.407279H109.626V0.314738H110.133V0.313416Z" fill="#3B6AC8"/>
<path d="M110.877 0.313446H111V1.06039H110.906V0.477377L110.654 1.06039H110.584L110.332 0.477377V1.06039H110.237V0.313446H110.363L110.62 0.912324L110.877 0.313446Z" fill="#3B6AC8"/>
<path d="M32.3058 13.6364H19.7239V18.5252H37.5851C37.5851 15.8243 35.2222 13.6364 32.3058 13.6364Z" fill="#3B6AC8"/>
<path d="M32.5451 6.82687H4.96887V11.7157H27.8397C30.438 11.7157 32.5451 9.52643 32.5451 6.82687Z" fill="#3B6AC8"/>
<path d="M22.8708 0.0169983H0V4.90581H27.5763C27.5763 2.20493 25.4691 0.0169983 22.8708 0.0169983Z" fill="#3B6AC8"/>
</svg>
